<mxfile host="app.diagrams.net" agent="Mozilla/5.0 (Windows NT 10.0; Win64; x64) AppleWebKit/537.36 (KHTML, like Gecko) Chrome/132.0.0.0 Safari/537.36 OPR/117.0.0.0" version="26.1.3">
  <diagram name="Página-1" id="LJkUXgQSuJlhfPhUmv4B">
    <mxGraphModel dx="2466" dy="2101" grid="1" gridSize="10" guides="1" tooltips="1" connect="1" arrows="1" fold="1" page="1" pageScale="1" pageWidth="827" pageHeight="1169" math="0" shadow="0">
      <root>
        <mxCell id="0" />
        <mxCell id="1" parent="0" />
        <mxCell id="FoJHObWqx5gCs3iitMu9-4" style="edgeStyle=orthogonalEdgeStyle;rounded=0;orthogonalLoop=1;jettySize=auto;html=1;exitX=0;exitY=0.5;exitDx=0;exitDy=0;entryX=1;entryY=0.5;entryDx=0;entryDy=0;" edge="1" parent="1" source="FoJHObWqx5gCs3iitMu9-2" target="FoJHObWqx5gCs3iitMu9-3">
          <mxGeometry relative="1" as="geometry" />
        </mxCell>
        <mxCell id="FoJHObWqx5gCs3iitMu9-2" value="Usuário" style="ellipse;whiteSpace=wrap;html=1;" vertex="1" parent="1">
          <mxGeometry x="354" y="290" width="120" height="80" as="geometry" />
        </mxCell>
        <mxCell id="FoJHObWqx5gCs3iitMu9-6" style="edgeStyle=orthogonalEdgeStyle;rounded=0;orthogonalLoop=1;jettySize=auto;html=1;exitX=0.5;exitY=0;exitDx=0;exitDy=0;entryX=0.5;entryY=1;entryDx=0;entryDy=0;" edge="1" parent="1" source="FoJHObWqx5gCs3iitMu9-3" target="FoJHObWqx5gCs3iitMu9-5">
          <mxGeometry relative="1" as="geometry" />
        </mxCell>
        <mxCell id="FoJHObWqx5gCs3iitMu9-3" value="Registra" style="rounded=1;whiteSpace=wrap;html=1;" vertex="1" parent="1">
          <mxGeometry x="160" y="300" width="120" height="60" as="geometry" />
        </mxCell>
        <mxCell id="FoJHObWqx5gCs3iitMu9-9" style="edgeStyle=orthogonalEdgeStyle;rounded=0;orthogonalLoop=1;jettySize=auto;html=1;exitX=0.5;exitY=0;exitDx=0;exitDy=0;entryX=0;entryY=0.5;entryDx=0;entryDy=0;" edge="1" parent="1" source="FoJHObWqx5gCs3iitMu9-5" target="FoJHObWqx5gCs3iitMu9-8">
          <mxGeometry relative="1" as="geometry" />
        </mxCell>
        <mxCell id="FoJHObWqx5gCs3iitMu9-10" style="edgeStyle=orthogonalEdgeStyle;rounded=0;orthogonalLoop=1;jettySize=auto;html=1;exitX=0.5;exitY=0;exitDx=0;exitDy=0;entryX=1;entryY=0.5;entryDx=0;entryDy=0;" edge="1" parent="1" source="FoJHObWqx5gCs3iitMu9-5" target="FoJHObWqx5gCs3iitMu9-7">
          <mxGeometry relative="1" as="geometry" />
        </mxCell>
        <mxCell id="FoJHObWqx5gCs3iitMu9-5" value="Possui conta?" style="rhombus;whiteSpace=wrap;html=1;" vertex="1" parent="1">
          <mxGeometry x="180" y="180" width="80" height="80" as="geometry" />
        </mxCell>
        <mxCell id="FoJHObWqx5gCs3iitMu9-15" style="edgeStyle=orthogonalEdgeStyle;rounded=0;orthogonalLoop=1;jettySize=auto;html=1;exitX=0.5;exitY=0;exitDx=0;exitDy=0;" edge="1" parent="1" source="FoJHObWqx5gCs3iitMu9-7">
          <mxGeometry relative="1" as="geometry">
            <mxPoint x="220" y="-60" as="targetPoint" />
            <Array as="points">
              <mxPoint x="60" y="26" />
              <mxPoint x="221" y="26" />
            </Array>
          </mxGeometry>
        </mxCell>
        <mxCell id="FoJHObWqx5gCs3iitMu9-7" value="Registrar sua conta" style="rounded=1;whiteSpace=wrap;html=1;" vertex="1" parent="1">
          <mxGeometry y="110" width="120" height="60" as="geometry" />
        </mxCell>
        <mxCell id="FoJHObWqx5gCs3iitMu9-14" style="edgeStyle=orthogonalEdgeStyle;rounded=0;orthogonalLoop=1;jettySize=auto;html=1;exitX=0.5;exitY=0;exitDx=0;exitDy=0;entryX=0.5;entryY=1;entryDx=0;entryDy=0;" edge="1" parent="1" source="FoJHObWqx5gCs3iitMu9-8" target="FoJHObWqx5gCs3iitMu9-13">
          <mxGeometry relative="1" as="geometry">
            <Array as="points">
              <mxPoint x="380" y="25" />
              <mxPoint x="220" y="25" />
            </Array>
          </mxGeometry>
        </mxCell>
        <mxCell id="FoJHObWqx5gCs3iitMu9-8" value="Fazer o Login" style="rounded=1;whiteSpace=wrap;html=1;" vertex="1" parent="1">
          <mxGeometry x="320" y="110" width="120" height="60" as="geometry" />
        </mxCell>
        <mxCell id="FoJHObWqx5gCs3iitMu9-11" value="Não" style="text;html=1;align=center;verticalAlign=middle;whiteSpace=wrap;rounded=0;" vertex="1" parent="1">
          <mxGeometry x="140" y="100" width="60" height="30" as="geometry" />
        </mxCell>
        <mxCell id="FoJHObWqx5gCs3iitMu9-12" value="Sim" style="text;html=1;align=center;verticalAlign=middle;whiteSpace=wrap;rounded=0;" vertex="1" parent="1">
          <mxGeometry x="230" y="100" width="60" height="30" as="geometry" />
        </mxCell>
        <mxCell id="FoJHObWqx5gCs3iitMu9-17" style="edgeStyle=orthogonalEdgeStyle;rounded=0;orthogonalLoop=1;jettySize=auto;html=1;exitX=0.5;exitY=0;exitDx=0;exitDy=0;entryX=0.5;entryY=1;entryDx=0;entryDy=0;" edge="1" parent="1" source="FoJHObWqx5gCs3iitMu9-13" target="FoJHObWqx5gCs3iitMu9-16">
          <mxGeometry relative="1" as="geometry" />
        </mxCell>
        <mxCell id="FoJHObWqx5gCs3iitMu9-13" value="Registrar a temperatura da semana" style="rounded=1;whiteSpace=wrap;html=1;" vertex="1" parent="1">
          <mxGeometry x="160" y="-120" width="120" height="60" as="geometry" />
        </mxCell>
        <mxCell id="FoJHObWqx5gCs3iitMu9-19" style="edgeStyle=orthogonalEdgeStyle;rounded=0;orthogonalLoop=1;jettySize=auto;html=1;exitX=0.5;exitY=0;exitDx=0;exitDy=0;entryX=0.5;entryY=1;entryDx=0;entryDy=0;" edge="1" parent="1" source="FoJHObWqx5gCs3iitMu9-16" target="FoJHObWqx5gCs3iitMu9-18">
          <mxGeometry relative="1" as="geometry" />
        </mxCell>
        <mxCell id="FoJHObWqx5gCs3iitMu9-16" value="Enviar para o sistema" style="rounded=1;whiteSpace=wrap;html=1;" vertex="1" parent="1">
          <mxGeometry x="160" y="-290" width="120" height="60" as="geometry" />
        </mxCell>
        <mxCell id="FoJHObWqx5gCs3iitMu9-21" style="edgeStyle=orthogonalEdgeStyle;rounded=0;orthogonalLoop=1;jettySize=auto;html=1;exitX=0.5;exitY=0;exitDx=0;exitDy=0;entryX=0.5;entryY=1;entryDx=0;entryDy=0;" edge="1" parent="1" source="FoJHObWqx5gCs3iitMu9-18" target="FoJHObWqx5gCs3iitMu9-20">
          <mxGeometry relative="1" as="geometry" />
        </mxCell>
        <mxCell id="FoJHObWqx5gCs3iitMu9-18" value="Fazer uma média da temperatura da semana" style="rounded=1;whiteSpace=wrap;html=1;" vertex="1" parent="1">
          <mxGeometry x="160" y="-410" width="120" height="60" as="geometry" />
        </mxCell>
        <mxCell id="FoJHObWqx5gCs3iitMu9-23" style="edgeStyle=orthogonalEdgeStyle;rounded=0;orthogonalLoop=1;jettySize=auto;html=1;exitX=0.5;exitY=0;exitDx=0;exitDy=0;entryX=0.5;entryY=1;entryDx=0;entryDy=0;" edge="1" parent="1" source="FoJHObWqx5gCs3iitMu9-20" target="FoJHObWqx5gCs3iitMu9-22">
          <mxGeometry relative="1" as="geometry" />
        </mxCell>
        <mxCell id="FoJHObWqx5gCs3iitMu9-20" value="Registrar temperatura" style="rounded=1;whiteSpace=wrap;html=1;" vertex="1" parent="1">
          <mxGeometry x="160" y="-530" width="120" height="60" as="geometry" />
        </mxCell>
        <mxCell id="FoJHObWqx5gCs3iitMu9-26" style="edgeStyle=orthogonalEdgeStyle;rounded=0;orthogonalLoop=1;jettySize=auto;html=1;exitX=0.5;exitY=0;exitDx=0;exitDy=0;entryX=0.5;entryY=1;entryDx=0;entryDy=0;" edge="1" parent="1" source="FoJHObWqx5gCs3iitMu9-22" target="FoJHObWqx5gCs3iitMu9-25">
          <mxGeometry relative="1" as="geometry" />
        </mxCell>
        <mxCell id="FoJHObWqx5gCs3iitMu9-22" value="Registrar no site em quantos graus o ar-condicionado deve ser ligado" style="rounded=1;whiteSpace=wrap;html=1;" vertex="1" parent="1">
          <mxGeometry x="160" y="-650" width="120" height="60" as="geometry" />
        </mxCell>
        <mxCell id="FoJHObWqx5gCs3iitMu9-29" style="edgeStyle=orthogonalEdgeStyle;rounded=0;orthogonalLoop=1;jettySize=auto;html=1;exitX=0.5;exitY=0;exitDx=0;exitDy=0;entryX=1;entryY=0.5;entryDx=0;entryDy=0;" edge="1" parent="1" source="FoJHObWqx5gCs3iitMu9-25" target="FoJHObWqx5gCs3iitMu9-28">
          <mxGeometry relative="1" as="geometry" />
        </mxCell>
        <mxCell id="FoJHObWqx5gCs3iitMu9-30" style="edgeStyle=orthogonalEdgeStyle;rounded=0;orthogonalLoop=1;jettySize=auto;html=1;exitX=0.5;exitY=0;exitDx=0;exitDy=0;entryX=0;entryY=0.5;entryDx=0;entryDy=0;" edge="1" parent="1" source="FoJHObWqx5gCs3iitMu9-25" target="FoJHObWqx5gCs3iitMu9-27">
          <mxGeometry relative="1" as="geometry" />
        </mxCell>
        <mxCell id="FoJHObWqx5gCs3iitMu9-25" value="Temperatura passou o limite registrado?" style="rhombus;whiteSpace=wrap;html=1;" vertex="1" parent="1">
          <mxGeometry x="180" y="-790" width="80" height="80" as="geometry" />
        </mxCell>
        <mxCell id="FoJHObWqx5gCs3iitMu9-36" style="edgeStyle=orthogonalEdgeStyle;rounded=0;orthogonalLoop=1;jettySize=auto;html=1;exitX=0.5;exitY=0;exitDx=0;exitDy=0;entryX=0.5;entryY=1;entryDx=0;entryDy=0;" edge="1" parent="1" source="FoJHObWqx5gCs3iitMu9-27" target="FoJHObWqx5gCs3iitMu9-34">
          <mxGeometry relative="1" as="geometry" />
        </mxCell>
        <mxCell id="FoJHObWqx5gCs3iitMu9-27" value="Ligar ar-condicionado" style="rounded=1;whiteSpace=wrap;html=1;" vertex="1" parent="1">
          <mxGeometry x="354" y="-880" width="120" height="60" as="geometry" />
        </mxCell>
        <mxCell id="FoJHObWqx5gCs3iitMu9-35" style="edgeStyle=orthogonalEdgeStyle;rounded=0;orthogonalLoop=1;jettySize=auto;html=1;exitX=0.5;exitY=0;exitDx=0;exitDy=0;entryX=0.5;entryY=1;entryDx=0;entryDy=0;" edge="1" parent="1" source="FoJHObWqx5gCs3iitMu9-28" target="FoJHObWqx5gCs3iitMu9-34">
          <mxGeometry relative="1" as="geometry" />
        </mxCell>
        <mxCell id="FoJHObWqx5gCs3iitMu9-28" value="Não ligar o ar-condicionado" style="rounded=1;whiteSpace=wrap;html=1;" vertex="1" parent="1">
          <mxGeometry x="-20" y="-880" width="120" height="60" as="geometry" />
        </mxCell>
        <mxCell id="FoJHObWqx5gCs3iitMu9-31" value="Não" style="text;html=1;align=center;verticalAlign=middle;whiteSpace=wrap;rounded=0;" vertex="1" parent="1">
          <mxGeometry x="140" y="-880" width="60" height="30" as="geometry" />
        </mxCell>
        <mxCell id="FoJHObWqx5gCs3iitMu9-32" value="Sim" style="text;html=1;align=center;verticalAlign=middle;whiteSpace=wrap;rounded=0;" vertex="1" parent="1">
          <mxGeometry x="260" y="-880" width="60" height="30" as="geometry" />
        </mxCell>
        <mxCell id="FoJHObWqx5gCs3iitMu9-34" value="Fim" style="ellipse;whiteSpace=wrap;html=1;" vertex="1" parent="1">
          <mxGeometry x="160" y="-1100" width="120" height="80" as="geometry" />
        </mxCell>
        <mxCell id="FoJHObWqx5gCs3iitMu9-38" style="edgeStyle=orthogonalEdgeStyle;rounded=0;orthogonalLoop=1;jettySize=auto;html=1;exitX=0;exitY=0.5;exitDx=0;exitDy=0;entryX=1;entryY=0.5;entryDx=0;entryDy=0;" edge="1" parent="1" source="FoJHObWqx5gCs3iitMu9-37" target="FoJHObWqx5gCs3iitMu9-2">
          <mxGeometry relative="1" as="geometry" />
        </mxCell>
        <mxCell id="FoJHObWqx5gCs3iitMu9-37" value="Inicio" style="ellipse;whiteSpace=wrap;html=1;" vertex="1" parent="1">
          <mxGeometry x="570" y="290" width="120" height="80" as="geometry" />
        </mxCell>
        <mxCell id="FoJHObWqx5gCs3iitMu9-39" value="Usuário" style="ellipse;whiteSpace=wrap;html=1;" vertex="1" parent="1">
          <mxGeometry x="160" y="460" width="120" height="80" as="geometry" />
        </mxCell>
        <mxCell id="FoJHObWqx5gCs3iitMu9-40" value="Sistema/Site" style="rounded=1;whiteSpace=wrap;html=1;" vertex="1" parent="1">
          <mxGeometry x="354" y="470" width="120" height="60" as="geometry" />
        </mxCell>
      </root>
    </mxGraphModel>
  </diagram>
</mxfile>
